<svg width="120" height="60" viewBox="0 0 120 60" fill="none" xmlns="http://www.w3.org/2000/svg">
<g clip-path="url(#clip0_390_223)">
<path d="M12.7544 48.6069C15.9237 48.406 19.3249 48.7476 22.9579 49.6317C26.6296 50.556 29.509 51.0182 31.5961 51.0182C33.6832 51.0182 35.2292 50.556 36.2341 49.6317C37.2776 48.7074 37.7994 47.542 37.7994 46.1354H38.9589C38.9589 50.757 38.3598 54.2131 37.1617 56.5038C35.9636 58.8347 33.7798 60.0001 30.6106 60.0001C27.9437 60.0001 25.3156 58.7945 22.726 56.3833C21.6438 55.3786 20.5616 54.3739 19.4795 53.3692C16.8899 50.9579 14.3197 49.7523 11.7688 49.7523C10.1455 49.7523 8.46429 50.4556 6.72505 51.8621L6.08733 50.7771C7.32412 49.6518 8.54159 48.828 9.73973 48.3055C10.9379 47.8233 11.7882 47.5018 12.2906 47.341C12.9863 47.0597 14.2811 46.6779 16.1749 46.1957C22.784 44.1461 26.0886 37.9371 26.0886 27.5687C26.0886 22.1835 25.2576 18.0844 23.5956 15.2713C21.9724 12.4581 19.9239 11.0516 17.4503 11.0516C15.0154 11.0516 13.0636 12.4782 11.5949 15.3315C10.1262 18.1447 9.39188 22.0228 9.39188 26.9659C9.39188 31.909 10.0103 35.7469 11.2471 38.4796C12.5225 41.1722 14.397 42.5185 16.8706 42.5185V43.7241C11.6529 43.7241 7.53669 42.3778 4.52201 39.6853C1.50734 36.9927 0 33.0342 0 27.8098C0 22.5854 1.60396 18.2853 4.81189 14.9096C8.01982 11.5338 12.252 9.84595 17.5083 9.84595C22.7647 9.84595 27.0741 11.5338 30.4366 14.9096C33.7992 18.2853 35.4804 22.5251 35.4804 27.629C35.4804 30.6029 34.8814 33.2954 33.6832 35.7067C32.5237 38.118 30.8811 40.1474 28.7554 41.7951C24.5426 45.0503 19.2089 47.2406 12.7544 48.3658V48.6069Z" fill="white"/>
<path d="M47.975 44.2064H33.4814V43.0007H36.3801V11.6544H33.4814V10.4487H47.975C50.8351 10.4487 53.4053 10.9511 55.6857 11.9558C58.0046 12.9203 59.8791 14.2063 61.3092 15.8138C64.2079 19.1494 65.6573 22.927 65.6573 27.1467C65.6573 32.8534 64.2079 37.1333 61.3092 39.9867C58.4105 42.7998 53.9657 44.2064 47.975 44.2064ZM45.0763 43.0007C49.2505 43.0007 52.2652 41.8353 54.1203 39.5044C55.9755 37.1333 56.9031 33.2954 56.9031 27.9906C56.9031 22.6457 55.8982 18.5867 53.8884 15.8138C51.8787 13.0408 48.9413 11.6544 45.0763 11.6544V43.0007Z" fill="white"/>
<path d="M100.323 28.1314H101.869V45.0102H66.3882V43.4027L88.264 1.60751H83.3168C78.5242 1.60751 75.1488 2.49163 73.1906 4.25989C71.2322 6.02815 70.2532 9.69869 70.2532 15.2713H68.7072V0H101.328V1.60751L79.1426 43.4027H87.2591C89.6811 43.4027 91.6392 43.2419 93.1338 42.9204C94.6282 42.5453 95.968 41.8488 97.1534 40.8307C99.2662 38.9017 100.323 34.6685 100.323 28.1314Z" fill="white"/>
<path d="M112.811 45.8943C110.853 45.8943 109.178 45.1709 107.787 43.7242C106.395 42.2774 105.7 40.5359 105.7 38.4998C105.7 36.41 106.395 34.6418 107.787 33.195C109.178 31.7483 110.853 31.0249 112.811 31.0249C114.821 31.0249 116.522 31.7483 117.913 33.195C119.304 34.6418 120 36.41 120 38.4998C120 40.5359 119.304 42.2774 117.913 43.7242C116.522 45.1709 114.821 45.8943 112.811 45.8943Z" fill="white"/>
<path d="M52.6062 57.8702V58.272H47.5238V57.8702H48.664L47.3692 55.0771H43.4656L42.3447 57.8702H43.8714V58.272H40.5669V57.8702H41.8616L46.287 46.8186H46.7701L51.6786 57.8702H52.6062ZM43.6395 54.6552H47.176L45.2821 50.556L43.6395 54.6552ZM63.7099 57.8702H64.6762V58.272H59.8449V57.8702H60.8112V52.2439C60.8112 51.2928 60.6759 50.6163 60.4054 50.2144C60.1348 49.8125 59.729 49.6116 59.1879 49.6116C58.4535 49.6116 57.8672 50.0135 57.4293 50.8172V57.8702H58.3956V58.272H53.5644V57.8702H54.5306V49.4307H53.5644V49.0289H57.4293V50.0738C57.674 49.7255 58.0541 49.4308 58.5695 49.1896C59.0976 48.935 59.6644 48.8078 60.2701 48.8078C62.5632 48.8078 63.7099 50.1005 63.7099 52.686V57.8702ZM69.5756 49.4307V54.3336C69.5756 55.4856 69.6206 56.1889 69.7109 56.4435C69.8009 56.6846 69.8975 56.8922 70.0007 57.0664C70.194 57.4146 70.5289 57.5888 71.0056 57.5888C71.4951 57.5888 71.8366 57.5219 72.0298 57.3879V57.7898C71.4114 58.2453 70.7351 58.473 70.0007 58.473C68.9185 58.473 68.0939 58.2051 67.5271 57.6692C66.9602 57.1333 66.6769 56.1756 66.6769 54.7958V49.4307H65.2468V49.0289H66.6769C67.2953 48.9218 67.8427 48.6135 68.3195 48.1046C68.796 47.5821 69.1245 46.8654 69.305 45.9545H69.5756V49.0289H71.8173V49.4307H69.5756ZM76.1911 57.0664C76.4744 57.7361 76.9641 58.0711 77.6598 58.0711C78.3554 58.0711 78.8513 57.7295 79.1478 57.0463C79.444 56.3631 79.5922 55.2379 79.5922 53.6705C79.5922 52.0898 79.444 50.9579 79.1478 50.2747C78.8513 49.578 78.3554 49.2298 77.6598 49.2298C76.9641 49.2298 76.4744 49.578 76.1911 50.2747C75.9076 50.9579 75.7659 52.0898 75.7659 53.6705C75.7659 55.2513 75.9076 56.3832 76.1911 57.0664ZM77.6211 58.473C76.3971 58.473 75.2892 58.0576 74.2972 57.2272C73.3051 56.3967 72.8092 55.2178 72.8092 53.6906C72.8092 52.8734 72.9509 52.1434 73.2344 51.5004C73.5306 50.8574 73.9171 50.3484 74.3939 49.9733C74.8834 49.5981 75.4051 49.3168 75.9592 49.1293C76.513 48.9284 77.08 48.8279 77.6598 48.8279C78.2395 48.8279 78.8063 48.9284 79.3603 49.1293C79.9271 49.3168 80.4489 49.5981 80.9257 49.9733C81.4151 50.3484 81.808 50.8574 82.1045 51.5004C82.4007 52.1434 82.5489 52.8668 82.5489 53.6705C82.5489 54.4743 82.4007 55.191 82.1045 55.8206C81.808 56.4501 81.4151 56.9525 80.9257 57.3276C79.9465 58.0912 78.8449 58.473 77.6211 58.473ZM87.7754 57.8702H88.7416V58.272H83.9104V57.8702H84.8766V49.4307H84.1036V49.0289H87.7754V57.8702ZM87.9493 46.3765C87.9493 46.8587 87.7817 47.2741 87.4468 47.6223C87.1247 47.9573 86.7254 48.1247 86.2487 48.1247C85.7849 48.1247 85.3854 47.9573 85.0505 47.6223C84.7156 47.2741 84.5481 46.8587 84.5481 46.3765C84.5481 45.8808 84.7156 45.4588 85.0505 45.1106C85.3854 44.7624 85.7849 44.5881 86.2487 44.5881C86.7254 44.5881 87.1247 44.7624 87.4468 45.1106C87.7817 45.4588 87.9493 45.8808 87.9493 46.3765ZM100.246 57.8702H101.212V58.272H96.3809V57.8702H97.3471V52.2439C97.3471 51.2928 97.2119 50.6163 96.9413 50.2144C96.6708 49.8125 96.2649 49.6116 95.7239 49.6116C94.9895 49.6116 94.4034 50.0135 93.9653 50.8172V57.8702H94.9315V58.272H90.1003V57.8702H91.0666V49.4307H90.1003V49.0289H93.9653V50.0738C94.2101 49.7255 94.5903 49.4308 95.1055 49.1896C95.6338 48.935 96.2006 48.8078 96.806 48.8078C99.0993 48.8078 100.246 50.1005 100.246 52.686V57.8702ZM111.097 54.2533H105.261C105.39 56.6109 106.273 57.7898 107.909 57.7898C108.347 57.7898 108.843 57.6827 109.397 57.4683C109.964 57.2539 110.376 56.9525 110.633 56.5641L110.904 56.765C110.621 57.2607 110.137 57.6692 109.455 57.9907C108.772 58.3122 108.089 58.473 107.406 58.473C106.736 58.473 106.131 58.4061 105.59 58.272C105.048 58.1248 104.52 57.8836 104.005 57.5487C103.49 57.2137 103.084 56.7113 102.787 56.0416C102.504 55.3719 102.362 54.5613 102.362 53.6103C102.362 51.9893 102.794 50.7905 103.657 50.0135C104.52 49.2232 105.564 48.8279 106.788 48.8279C108.025 48.8279 109.049 49.2565 109.86 50.1139C110.685 50.9713 111.097 52.351 111.097 54.2533ZM105.242 53.8514H108.392C108.392 52.619 108.263 51.5406 108.005 50.6163C107.761 49.692 107.361 49.2298 106.807 49.2298C106.253 49.2298 105.854 49.6785 105.609 50.5761C105.364 51.4602 105.242 52.4784 105.242 53.6304V53.8514Z" fill="white"/>
</g>
<defs>
<clipPath id="clip0_390_223">
<rect width="120" height="60" fill="white"/>
</clipPath>
</defs>
</svg>
